<svg width="47" height="47" viewBox="0 0 47 47" fill="none" xmlns="http://www.w3.org/2000/svg">
<g id="assignment_turned_in">
<mask id="mask0_1_76" style="mask-type:alpha" maskUnits="userSpaceOnUse" x="0" y="0" width="47" height="47">
<rect id="Bounding box" width="47" height="47" fill="#D9D9D9"/>
</mask>
<g mask="url(#mask0_1_76)">
<path id="assignment_turned_in_2" d="M20.7583 25.948L16.5479 21.7375C16.1889 21.3785 15.7319 21.199 15.1771 21.199C14.6222 21.199 14.1653 21.3785 13.8063 21.7375C13.4472 22.0966 13.2677 22.5535 13.2677 23.1084C13.2677 23.6632 13.4472 24.1202 13.8063 24.4792L19.3875 30.0605C19.7792 30.4521 20.2361 30.648 20.7583 30.648C21.2806 30.648 21.7375 30.4521 22.1292 30.0605L33.1938 18.9959C33.5528 18.6368 33.7323 18.1799 33.7323 17.625C33.7323 17.0702 33.5528 16.6132 33.1938 16.2542C32.8347 15.8952 32.3778 15.7157 31.8229 15.7157C31.2681 15.7157 30.8111 15.8952 30.4521 16.2542L20.7583 25.948ZM9.79167 41.125C8.71458 41.125 7.79253 40.7415 7.02552 39.9745C6.25851 39.2075 5.875 38.2855 5.875 37.2084V9.79171C5.875 8.71462 6.25851 7.79258 7.02552 7.02556C7.79253 6.25855 8.71458 5.87504 9.79167 5.87504H18.0167C18.441 4.70004 19.1509 3.75351 20.1464 3.03546C21.1418 2.3174 22.2597 1.95837 23.5 1.95837C24.7403 1.95837 25.8582 2.3174 26.8536 3.03546C27.8491 3.75351 28.559 4.70004 28.9833 5.87504H37.2083C38.2854 5.87504 39.2075 6.25855 39.9745 7.02556C40.7415 7.79258 41.125 8.71462 41.125 9.79171V37.2084C41.125 38.2855 40.7415 39.2075 39.9745 39.9745C39.2075 40.7415 38.2854 41.125 37.2083 41.125H9.79167ZM9.79167 37.2084H37.2083V9.79171H9.79167V37.2084ZM23.5 8.32296C23.9243 8.32296 24.2752 8.18424 24.5526 7.90681C24.83 7.62938 24.9688 7.27851 24.9688 6.85421C24.9688 6.4299 24.83 6.07903 24.5526 5.8016C24.2752 5.52417 23.9243 5.38546 23.5 5.38546C23.0757 5.38546 22.7248 5.52417 22.4474 5.8016C22.17 6.07903 22.0312 6.4299 22.0312 6.85421C22.0312 7.27851 22.17 7.62938 22.4474 7.90681C22.7248 8.18424 23.0757 8.32296 23.5 8.32296Z" fill="#00A6FF"/>
</g>
</g>
</svg>
