<svg width="24" height="24" viewBox="0 0 24 24" fill="none" xmlns="http://www.w3.org/2000/svg">
<g id="grade">
<mask id="mask0_1_172" style="mask-type:alpha" maskUnits="userSpaceOnUse" x="0" y="0" width="24" height="24">
<rect id="Bounding box" width="24" height="24" fill="#D9D9D9"/>
</mask>
<g mask="url(#mask0_1_172)">
<path id="grade_2" d="M6.99318 20.8C6.80985 20.95 6.61402 20.9583 6.40568 20.825C6.19735 20.6917 6.13485 20.5083 6.21818 20.275L8.09318 14.15L3.21818 10.65C3.01818 10.5167 2.95568 10.3333 3.03068 10.1C3.10568 9.86667 3.25985 9.75 3.49318 9.75H9.54318L11.4682 3.35C11.5015 3.21667 11.564 3.125 11.6557 3.075C11.7473 3.025 11.8432 3 11.9432 3C12.0432 3 12.139 3.025 12.2307 3.075C12.3223 3.125 12.3848 3.21667 12.4182 3.35L14.3432 9.75H20.3932C20.6265 9.75 20.7807 9.86667 20.8557 10.1C20.9307 10.3333 20.8682 10.5167 20.6682 10.65L15.7932 14.15L17.6682 20.275C17.7515 20.5083 17.689 20.6917 17.4807 20.825C17.2723 20.9583 17.0765 20.95 16.8932 20.8L11.9432 17.05L6.99318 20.8Z" fill="#E2E700"/>
</g>
</g>
</svg>
