<svg width="24" height="24" viewBox="0 0 24 24" fill="none" xmlns="http://www.w3.org/2000/svg">
<g id="lab_profile">
<mask id="mask0_1_166" style="mask-type:alpha" maskUnits="userSpaceOnUse" x="0" y="0" width="24" height="24">
<rect id="Bounding box" width="24" height="24" fill="#D9D9D9"/>
</mask>
<g mask="url(#mask0_1_166)">
<path id="lab_profile_2" d="M9 12C8.71667 12 8.47917 11.9042 8.2875 11.7125C8.09583 11.5208 8 11.2833 8 11C8 10.7167 8.09583 10.4792 8.2875 10.2875C8.47917 10.0958 8.71667 10 9 10H15C15.2833 10 15.5208 10.0958 15.7125 10.2875C15.9042 10.4792 16 10.7167 16 11C16 11.2833 15.9042 11.5208 15.7125 11.7125C15.5208 11.9042 15.2833 12 15 12H9ZM9 8C8.71667 8 8.47917 7.90417 8.2875 7.7125C8.09583 7.52083 8 7.28333 8 7C8 6.71667 8.09583 6.47917 8.2875 6.2875C8.47917 6.09583 8.71667 6 9 6H15C15.2833 6 15.5208 6.09583 15.7125 6.2875C15.9042 6.47917 16 6.71667 16 7C16 7.28333 15.9042 7.52083 15.7125 7.7125C15.5208 7.90417 15.2833 8 15 8H9ZM6 14H13.5C13.9833 14 14.4333 14.1042 14.85 14.3125C15.2667 14.5208 15.6167 14.8167 15.9 15.2L18 17.95V4H6V14ZM6 20H17.05L14.325 16.425C14.225 16.2917 14.1042 16.1875 13.9625 16.1125C13.8208 16.0375 13.6667 16 13.5 16H6V20ZM18 22H6C5.45 22 4.97917 21.8042 4.5875 21.4125C4.19583 21.0208 4 20.55 4 20V4C4 3.45 4.19583 2.97917 4.5875 2.5875C4.97917 2.19583 5.45 2 6 2H18C18.55 2 19.0208 2.19583 19.4125 2.5875C19.8042 2.97917 20 3.45 20 4V20C20 20.55 19.8042 21.0208 19.4125 21.4125C19.0208 21.8042 18.55 22 18 22Z" fill="white"/>
</g>
</g>
</svg>
