<svg width="39" height="39" viewBox="0 0 39 39" fill="none" xmlns="http://www.w3.org/2000/svg">
<g id="mail">
<mask id="mask0_1_216" style="mask-type:alpha" maskUnits="userSpaceOnUse" x="0" y="0" width="39" height="39">
<rect id="Bounding box" width="39" height="39" fill="#D9D9D9"/>
</mask>
<g mask="url(#mask0_1_216)">
<path id="mail_2" d="M7.49998 30.875C6.75208 30.875 6.1276 30.6245 5.62656 30.1234C5.12552 29.6224 4.875 28.9979 4.875 28.25V10.75C4.875 10.0021 5.12552 9.3776 5.62656 8.87656C6.1276 8.37552 6.75208 8.125 7.49998 8.125H31.5C32.2479 8.125 32.8724 8.37552 33.3734 8.87656C33.8745 9.3776 34.125 10.0021 34.125 10.75V28.25C34.125 28.9979 33.8745 29.6224 33.3734 30.1234C32.8724 30.6245 32.2479 30.875 31.5 30.875H7.49998ZM19.5 19.6875L6.5 11.1875V28.25C6.5 28.5417 6.59375 28.7813 6.78125 28.9688C6.96874 29.1563 7.20832 29.25 7.49998 29.25H31.5C31.7917 29.25 32.0313 29.1563 32.2188 28.9688C32.4063 28.7813 32.5 28.5417 32.5 28.25V11.1875L19.5 19.6875ZM19.5 17.875L32 9.75H7.00001L19.5 17.875ZM6.5 11.1875V9.75V28.25C6.5 28.5417 6.59375 28.7813 6.78125 28.9688C6.96874 29.1563 7.20832 29.25 7.49998 29.25H6.5V11.1875Z" fill="#008DD9"/>
</g>
</g>
</svg>
