<svg width="39" height="39" viewBox="0 0 39 39" fill="none" xmlns="http://www.w3.org/2000/svg">
<g id="person">
<mask id="mask0_1_219" style="mask-type:alpha" maskUnits="userSpaceOnUse" x="0" y="0" width="39" height="39">
<rect id="Bounding box" width="39" height="39" fill="#D9D9D9"/>
</mask>
<g mask="url(#mask0_1_219)">
<path id="person_2" d="M19.5 18.5003C18.1594 18.5003 17.0117 18.0229 16.057 17.0683C15.1023 16.1136 14.625 14.9659 14.625 13.6253C14.625 12.2846 15.1023 11.137 16.057 10.1823C17.0117 9.22759 18.1594 8.75024 19.5 8.75024C20.8406 8.75024 21.9883 9.22759 22.943 10.1823C23.8977 11.137 24.375 12.2846 24.375 13.6253C24.375 14.9659 23.8977 16.1136 22.943 17.0683C21.9883 18.0229 20.8406 18.5003 19.5 18.5003ZM8.125 30.2503V27.5753C8.125 26.9044 8.32031 26.2768 8.71093 25.6925C9.10156 25.1081 9.62708 24.6544 10.2875 24.3315C11.8208 23.5961 13.3552 23.0445 14.8906 22.6768C16.426 22.3091 17.9625 22.1253 19.5 22.1253C21.0375 22.1253 22.574 22.3091 24.1094 22.6768C25.6448 23.0445 27.1792 23.5961 28.7125 24.3315C29.3729 24.6544 29.8984 25.1081 30.2891 25.6925C30.6797 26.2768 30.875 26.9044 30.875 27.5753V30.2503H8.125ZM9.75 28.6253H29.25V27.5753C29.25 27.2149 29.1339 26.8763 28.9016 26.5596C28.6693 26.243 28.3479 25.9753 27.9375 25.7565C26.6 25.1086 25.221 24.6123 23.8004 24.2675C22.3799 23.9227 20.9464 23.7503 19.5 23.7503C18.0536 23.7503 16.6201 23.9227 15.1996 24.2675C13.779 24.6123 12.4 25.1086 11.0625 25.7565C10.6521 25.9753 10.3307 26.243 10.0984 26.5596C9.86615 26.8763 9.75 27.2149 9.75 27.5753V28.6253ZM19.5 16.8753C20.3938 16.8753 21.1589 16.5571 21.7953 15.9206C22.4318 15.2841 22.75 14.519 22.75 13.6253C22.75 12.7315 22.4318 11.9664 21.7953 11.33C21.1589 10.6935 20.3938 10.3753 19.5 10.3753C18.6062 10.3753 17.8411 10.6935 17.2047 11.33C16.5682 11.9664 16.25 12.7315 16.25 13.6253C16.25 14.519 16.5682 15.2841 17.2047 15.9206C17.8411 16.5571 18.6062 16.8753 19.5 16.8753Z" fill="#008DD9"/>
</g>
</g>
</svg>
