<svg width="54" height="54" viewBox="0 0 54 54" fill="none" xmlns="http://www.w3.org/2000/svg">
<g id="search">
<mask id="mask0_1_28" style="mask-type:alpha" maskUnits="userSpaceOnUse" x="0" y="0" width="54" height="54">
<rect id="Bounding box" width="54" height="54" fill="#D9D9D9"/>
</mask>
<g mask="url(#mask0_1_28)">
<path id="search_2" d="M21.375 36C17.2875 36 13.8281 34.5844 10.9969 31.7531C8.16563 28.9219 6.75 25.4625 6.75 21.375C6.75 17.2875 8.16563 13.8281 10.9969 10.9969C13.8281 8.16563 17.2875 6.75 21.375 6.75C25.4625 6.75 28.9219 8.16563 31.7531 10.9969C34.5844 13.8281 36 17.2875 36 21.375C36 23.025 35.7375 24.5812 35.2125 26.0437C34.6875 27.5063 33.975 28.8 33.075 29.925L45.675 42.525C46.0875 42.9375 46.2938 43.4625 46.2938 44.1C46.2938 44.7375 46.0875 45.2625 45.675 45.675C45.2625 46.0875 44.7375 46.2938 44.1 46.2938C43.4625 46.2938 42.9375 46.0875 42.525 45.675L29.925 33.075C28.8 33.975 27.5063 34.6875 26.0437 35.2125C24.5812 35.7375 23.025 36 21.375 36ZM21.375 31.5C24.1875 31.5 26.5781 30.5156 28.5469 28.5469C30.5156 26.5781 31.5 24.1875 31.5 21.375C31.5 18.5625 30.5156 16.1719 28.5469 14.2031C26.5781 12.2344 24.1875 11.25 21.375 11.25C18.5625 11.25 16.1719 12.2344 14.2031 14.2031C12.2344 16.1719 11.25 18.5625 11.25 21.375C11.25 24.1875 12.2344 26.5781 14.2031 28.5469C16.1719 30.5156 18.5625 31.5 21.375 31.5Z" fill="white"/>
</g>
</g>
</svg>
