<svg width="20" height="20" viewBox="0 0 20 20" fill="none" xmlns="http://www.w3.org/2000/svg">
<g id="stethoscope">
<mask id="mask0_1_163" style="mask-type:alpha" maskUnits="userSpaceOnUse" x="0" y="0" width="20" height="20">
<rect id="Bounding box" width="20" height="20" fill="#D9D9D9"/>
</mask>
<g mask="url(#mask0_1_163)">
<path id="stethoscope_2" d="M11.25 18.3334C9.75 18.3334 8.47223 17.8056 7.41667 16.7501C6.36112 15.6945 5.83334 14.4167 5.83334 12.9167V12.4376C4.63889 12.2431 3.64584 11.6841 2.85417 10.7605C2.06251 9.83689 1.66667 8.75008 1.66667 7.50008V3.33341C1.66667 3.0973 1.74653 2.89939 1.90626 2.73966C2.06598 2.57994 2.26389 2.50008 2.50001 2.50008H4.16667C4.16667 2.26397 4.24653 2.06605 4.40626 1.90633C4.56598 1.74661 4.76389 1.66675 5.00001 1.66675C5.23612 1.66675 5.43403 1.74661 5.59376 1.90633C5.75348 2.06605 5.83334 2.26397 5.83334 2.50008V4.16675C5.83334 4.40286 5.75348 4.60078 5.59376 4.7605C5.43403 4.92022 5.23612 5.00008 5.00001 5.00008C4.76389 5.00008 4.56598 4.92022 4.40626 4.7605C4.24653 4.60078 4.16667 4.40286 4.16667 4.16675H3.33334V7.50008C3.33334 8.41675 3.65973 9.20147 4.31251 9.85425C4.96528 10.507 5.75 10.8334 6.66667 10.8334C7.58334 10.8334 8.36806 10.507 9.02084 9.85425C9.67362 9.20147 10 8.41675 10 7.50008V4.16675H9.16667C9.16667 4.40286 9.08681 4.60078 8.92709 4.7605C8.76737 4.92022 8.56945 5.00008 8.33334 5.00008C8.09723 5.00008 7.89931 4.92022 7.73959 4.7605C7.57987 4.60078 7.5 4.40286 7.5 4.16675V2.50008C7.5 2.26397 7.57987 2.06605 7.73959 1.90633C7.89931 1.74661 8.09723 1.66675 8.33334 1.66675C8.56945 1.66675 8.76737 1.74661 8.92709 1.90633C9.08681 2.06605 9.16667 2.26397 9.16667 2.50008H10.8333C11.0694 2.50008 11.2674 2.57994 11.4271 2.73966C11.5868 2.89939 11.6667 3.0973 11.6667 3.33341V7.50008C11.6667 8.75008 11.2708 9.83689 10.4792 10.7605C9.6875 11.6841 8.69445 12.2431 7.5 12.4376V12.9167C7.5 13.9584 7.86459 14.8438 8.59375 15.573C9.32292 16.3022 10.2083 16.6667 11.25 16.6667C12.2917 16.6667 13.1771 16.3022 13.9063 15.573C14.6354 14.8438 15 13.9584 15 12.9167V11.5209C14.5139 11.3404 14.1146 11.0383 13.8021 10.6147C13.4896 10.1911 13.3333 9.70841 13.3333 9.16675C13.3333 8.4723 13.5764 7.88203 14.0625 7.39591C14.5486 6.9098 15.1389 6.66675 15.8333 6.66675C16.5278 6.66675 17.1181 6.9098 17.6042 7.39591C18.0903 7.88203 18.3333 8.4723 18.3333 9.16675C18.3333 9.70841 18.1771 10.1911 17.8646 10.6147C17.5521 11.0383 17.1528 11.3404 16.6667 11.5209V12.9167C16.6667 14.4167 16.1389 15.6945 15.0833 16.7501C14.0278 17.8056 12.75 18.3334 11.25 18.3334ZM15.8333 10.0001C16.0694 10.0001 16.2674 9.92022 16.4271 9.7605C16.5868 9.60078 16.6667 9.40286 16.6667 9.16675C16.6667 8.93064 16.5868 8.73272 16.4271 8.573C16.2674 8.41328 16.0694 8.33341 15.8333 8.33341C15.5972 8.33341 15.3993 8.41328 15.2396 8.573C15.0799 8.73272 15 8.93064 15 9.16675C15 9.40286 15.0799 9.60078 15.2396 9.7605C15.3993 9.92022 15.5972 10.0001 15.8333 10.0001Z" fill="white"/>
</g>
</g>
</svg>
